# xmcd
#
# Track frame offsets:
#	150
#	11861
#	28077
#	42647
#	54090
#	70955
#	83072
#	99231
#	112670
#	129825
#	150318
#
# Disc length: 2233 seconds
#
# Revision: 1
# Processed by: cddbd v1.5.2PL0 Copyright (c) Steve Scherf et al.
# Submitted via: audiograbber 1.83.01
#
DISCID=7a08b70b
DTITLE=Steeve Desmarais - Héritage
DYEAR=2003
DGENRE=Country
TTITLE0=Mes Dames On Va Danser (Steeve Desmarais - Serge Massé)
TTITLE1=C'est Pas D'ta Faute Mon Frère (Steeve Desmarais - Serge Massé)
TTITLE2=La Rage Au Coeur (Steeve Desmarais - Serge Massé)
TTITLE3=La Pêche Blanche (Steeve Desmarais - Éric Desmarais)
TTITLE4=T'es Toujours Dans Mes Pensées (Steeve Desmarais - Serge Massé)
TTITLE5=Tu M'en Mettais Gros Sur Le Dos (Steeve Desmarais - Serge Massé)
TTITLE6=Chu Ben Tanné Des Bars (Steeve Desmarais)
TTITLE7=Ça Commence À Ben Faire (Steeve Desmarais - Serge Massé)
TTITLE8=Le Bon Dieu S'pose Des Questions (Steeve Desmarais - Serge Massé)
TTITLE9=La Légende Du Lac St-Pierre (Steeve Desmarais - Éric Desmarais)
TTITLE10=Les Party's De Famille (Steeve Desmarais - Éric Desmarais)
EXTD=
EXTT0=
EXTT1=
EXTT2=
EXTT3=
EXTT4=
EXTT5=
EXTT6=
EXTT7=
EXTT8=
EXTT9=
EXTT10=
PLAYORDER=
